HIERARCHY
ROOT Hips
{
	OFFSET 0.000000 0.000000 0.000000
	CHANNELS 6 Xposition Yposition Zposition Zrotation Yrotation Xrotation 
	JOINT LeftUpLeg_virtual
	{
		OFFSET 0.000000 0.000000 0.000000
		CHANNELS 3 Zrotation Yrotation Xrotation
		JOINT LeftUpLeg
		{
			OFFSET 8.479694 -4.795517 -0.379053
			CHANNELS 3 Zrotation Yrotation Xrotation
			JOINT LeftLeg
			{
				OFFSET 0.485052 -32.551468 0.112863
				CHANNELS 3 Zrotation Yrotation Xrotation
				JOINT LeftFoot
				{
					OFFSET 0.438033 -32.635670 -3.012641
					CHANNELS 3 Zrotation Yrotation Xrotation
					JOINT LeftToeBase
					{
						OFFSET 0.970169 -13.225353 11.864223
						CHANNELS 3 Zrotation Yrotation Xrotation
						End Site
						{
							OFFSET 0.000000 0.000000 0.000000
						}
					}
				}
			}
		}
	}
	JOINT RightUpLeg_virtual
	{
		OFFSET 0.000000 0.000000 0.000000
		CHANNELS 3 Zrotation Yrotation Xrotation
		JOINT RightUpLeg
		{
			OFFSET -8.479694 -4.795517 -0.379053
			CHANNELS 3 Zrotation Yrotation Xrotation
			JOINT RightLeg
			{
				OFFSET -0.484100 -32.551483 0.112903
				CHANNELS 3 Zrotation Yrotation Xrotation
				JOINT RightFoot
				{
					OFFSET -0.438985 -32.635651 -3.012681
					CHANNELS 3 Zrotation Yrotation Xrotation
					JOINT RightToeBase
					{
						OFFSET -0.970169 -13.225354 11.864223
						CHANNELS 3 Zrotation Yrotation Xrotation
						End Site
						{
							OFFSET 0.000000 0.000000 0.000000
						}
					}
				}
			}
		}
	}
	JOINT Spine_virtual
	{
		OFFSET 0.000000 0.000000 0.000000
		CHANNELS 3 Zrotation Yrotation Xrotation
		JOINT Spine
		{
			OFFSET 0.000000 7.722015 1.166203
			CHANNELS 3 Zrotation Yrotation Xrotation
			JOINT Spine1
			{
				OFFSET 0.000000 12.024086 0.248766
				CHANNELS 3 Zrotation Yrotation Xrotation
				JOINT Spine2
				{
					OFFSET -0.000000 11.503036 -0.491240
					CHANNELS 3 Zrotation Yrotation Xrotation
					JOINT Neck_virtual
					{
						OFFSET 0.000000 0.000000 0.000000
						CHANNELS 3 Zrotation Yrotation Xrotation
						JOINT Neck
						{
							OFFSET 0.000000 18.430687 -3.123054
							CHANNELS 3 Zrotation Yrotation Xrotation
							JOINT Head
							{
								OFFSET -0.000000 9.051071 1.034021
								CHANNELS 3 Zrotation Yrotation Xrotation
								End Site
								{
									OFFSET 0.000000 0.000000 0.000000
								}
							}
						}
					}
					JOINT LeftShoulder_virtual
					{
						OFFSET 0.000000 0.000000 0.000000
						CHANNELS 3 Zrotation Yrotation Xrotation
						JOINT LeftShoulder
						{
							OFFSET 6.197824 13.665230 -4.064723
							CHANNELS 3 Zrotation Yrotation Xrotation
							JOINT LeftArm
							{
								OFFSET 7.778132 -0.187073 -1.709282
								CHANNELS 3 Zrotation Yrotation Xrotation
								JOINT LeftForeArm
								{
									OFFSET 21.954697 0.000000 -2.041093
									CHANNELS 3 Zrotation Yrotation Xrotation
									JOINT LeftHand
									{
										OFFSET 22.992908 0.000000 -0.870901
										CHANNELS 3 Zrotation Yrotation Xrotation
										End Site
										{
											OFFSET 0.000000 0.000000 0.000000
										}
									}
								}
							}
						}
					}
					JOINT RightShoulder_virtual
					{
						OFFSET 0.000000 0.000000 0.000000
						CHANNELS 3 Zrotation Yrotation Xrotation
						JOINT RightShoulder
						{
							OFFSET -6.197824 13.665230 -4.064723
							CHANNELS 3 Zrotation Yrotation Xrotation
							JOINT RightArm
							{
								OFFSET -7.778132 -0.187073 -1.709282
								CHANNELS 3 Zrotation Yrotation Xrotation
								JOINT RightForeArm
								{
									OFFSET -21.954697 0.000000 -2.041093
									CHANNELS 3 Zrotation Yrotation Xrotation
									JOINT RightHand
									{
										OFFSET -22.992908 0.000000 -0.870901
										CHANNELS 3 Zrotation Yrotation Xrotation
										End Site
										{
											OFFSET 0.000000 0.000000 0.000000
										}
									}
								}
							}
						}
					}
				}
			}
		}
	}
}
MOTION
Frames: 10
Frame Time: 0.033333
-8.366157 80.547501 35.205307 -179.944421 12.982894 179.922523 -5.324077 1.795167 10.642624 -5.526975 9.173752 -19.638614 7.139919 4.758328 30.533644 -2.068040 -12.085456 -15.331804 0.000000 0.000000 0.000000 -1.444161 0.973402 11.006624 -4.504606 -16.747851 -24.832087 -3.004448 1.701711 20.491064 11.073817 5.265175 6.392625 0.000000 0.000000 0.000000 1.327545 4.207222 -6.476145 -2.133016 0.629502 -2.640263 1.600391 -3.268947 4.173578 -0.023233 -0.056371 0.009592 1.441382 -1.861499 5.556495 8.881121 -9.830970 5.043647 0.000000 0.000000 0.000000 2.888856 -1.561427 1.832452 -8.727238 -8.118478 -0.198256 -60.266762 -0.397349 47.305371 153.353921 -88.415631 -126.644138 0.000000 0.000000 0.000000 -1.463478 0.173659 0.713049 4.893717 -0.223594 -7.032446 17.364528 -6.230809 -66.191117 -177.030799 53.040988 177.147499 0.000000 0.000000 0.000000 
-8.511824 80.555405 35.310020 -179.951811 13.065763 179.921294 -5.196431 1.903216 10.561725 -5.643038 9.222565 -19.725617 7.096009 4.864897 30.607048 -2.010371 -12.178396 -15.147172 0.000000 0.000000 0.000000 -1.272681 0.982139 10.983923 -4.748595 -16.579967 -25.024705 -3.010975 1.820483 20.618258 11.000655 5.160634 6.524927 0.000000 0.000000 0.000000 1.410366 4.271217 -6.419001 -2.204093 0.479181 -2.605250 1.595444 -3.361432 4.200500 -0.043162 0.026292 0.007390 1.454403 -1.855463 5.617609 8.945144 -9.730525 4.823481 0.000000 0.000000 0.000000 2.906180 -1.625106 1.918979 -8.707544 -8.058617 -0.239615 -60.166911 -0.415166 47.181953 155.240050 -88.495585 -128.328408 0.000000 0.000000 0.000000 -1.469398 0.163053 0.841827 5.081358 0.015825 -6.809689 17.340465 -6.202576 -64.700934 -177.032301 53.521724 177.011019 0.000000 0.000000 0.000000 
-8.709335 80.561905 35.528652 -179.915201 12.967165 179.941470 -5.061080 1.876268 10.409071 -5.828493 9.322155 -19.856506 7.060035 4.997920 30.669264 -2.016135 -12.257037 -14.946088 0.000000 0.000000 0.000000 -1.138572 0.817701 10.907670 -4.984519 -16.496853 -25.198368 -2.986297 1.780203 20.624122 11.023229 5.047818 6.807318 0.000000 0.000000 0.000000 1.531799 4.087418 -6.365701 -2.249018 0.480549 -2.565218 1.593166 -3.341183 4.216753 -0.038883 -0.110712 0.000277 1.445273 -1.902387 5.669500 8.997444 -9.629217 4.615471 0.000000 0.000000 0.000000 2.853342 -1.626715 2.039329 -8.708162 -8.024614 -0.247690 -60.038606 -0.483797 47.057387 157.388322 -88.582246 -130.305092 0.000000 0.000000 0.000000 -1.511008 0.209225 0.905262 5.331031 0.241646 -6.524913 17.451017 -6.229535 -63.662206 -177.297545 53.909863 176.641451 0.000000 0.000000 0.000000 
-8.972588 80.574562 35.883472 -179.907907 13.096172 -179.989527 -4.941432 1.948752 10.198536 -6.123952 9.481069 -20.072082 7.028967 5.229196 30.638292 -2.046722 -12.252115 -14.665888 0.000000 0.000000 0.000000 -0.943273 0.570200 10.725888 -5.219887 -16.482783 -25.484305 -2.923572 2.042695 20.386428 11.190629 4.950171 7.476048 0.000000 0.000000 0.000000 1.654022 3.930155 -6.316246 -2.248367 0.498759 -2.500985 1.580139 -3.291710 4.220182 -0.019773 -0.099586 0.019737 1.417478 -2.033470 5.664534 8.989634 -9.577616 4.398190 0.000000 0.000000 0.000000 2.834009 -1.650775 2.081981 -8.750688 -7.987819 -0.216621 -59.856875 -0.662699 46.954467 159.399581 -88.534333 -132.176086 0.000000 0.000000 0.000000 -1.544314 0.163733 0.937692 5.709833 0.484332 -6.034119 17.660525 -6.084924 -63.083935 -176.952853 54.202004 176.930436 0.000000 0.000000 0.000000 
-9.292152 80.594093 36.353020 -179.918794 13.182852 179.944148 -4.849539 1.893694 10.112239 -6.473371 9.628859 -20.215938 7.041868 5.436269 30.503307 -2.084172 -12.148346 -14.290547 0.000000 0.000000 0.000000 -0.815180 0.235224 10.589506 -5.467686 -16.481050 -25.709145 -2.833283 2.121270 20.067799 11.413413 4.857328 8.222826 0.000000 0.000000 0.000000 1.775780 3.744806 -6.078575 -2.189862 0.438734 -2.373943 1.561969 -3.296021 4.217915 -0.027510 -0.124983 0.001589 1.398851 -1.879183 5.695579 9.041897 -9.408714 4.254926 0.000000 0.000000 0.000000 2.809520 -1.707795 2.091440 -8.726566 -7.800409 -0.248402 -59.826925 -0.629838 46.823836 160.870681 -88.517209 -133.535048 0.000000 0.000000 0.000000 -1.591140 0.153914 0.929392 6.063588 0.598427 -5.831012 17.980427 -6.065135 -63.141889 -177.017985 54.386409 176.797712 0.000000 0.000000 0.000000 
-9.632865 80.621979 36.923134 -179.944489 13.564609 179.986727 -4.767393 1.960447 9.984316 -6.882521 9.790267 -20.503080 7.073474 5.671436 30.211245 -2.093812 -11.918944 -13.922109 0.000000 0.000000 0.000000 -0.685879 0.203630 10.387466 -5.740876 -16.367618 -26.038781 -2.741132 2.201910 19.655425 11.602196 4.719009 9.052766 0.000000 0.000000 0.000000 1.886505 3.705797 -5.871930 -2.091274 0.464993 -2.240346 1.510022 -3.213099 4.175279 -0.061069 -0.078447 -0.016381 1.406673 -1.919782 5.703222 8.991124 -9.461348 3.986283 0.000000 0.000000 0.000000 2.806782 -1.614460 2.272775 -8.815940 -7.791789 -0.157623 -59.591017 -0.656447 46.819413 161.915098 -88.430275 -134.496998 0.000000 0.000000 0.000000 -1.627491 0.170780 0.941761 6.464515 0.679232 -5.564779 18.342331 -6.135678 -63.828835 -176.904481 54.456374 176.885931 0.000000 0.000000 0.000000 
-9.988254 80.653313 37.565430 -179.978258 13.898234 179.897334 -4.731170 1.888660 9.927992 -7.302639 9.773445 -20.752128 7.123229 5.816875 29.793097 -2.088967 -11.603421 -13.522352 0.000000 0.000000 0.000000 -0.554993 0.163629 10.304624 -5.921217 -16.378449 -26.299162 -2.692332 2.405393 18.992529 11.768220 4.557186 10.033130 0.000000 0.000000 0.000000 1.957048 3.701483 -5.517847 -1.926829 0.408325 -2.002492 1.464159 -3.216849 4.168184 -0.036664 -0.097515 -0.013352 1.327598 -1.791939 5.674305 8.901383 -9.167417 3.773333 0.000000 0.000000 0.000000 2.750447 -1.542917 2.144505 -8.924888 -7.497385 -0.067987 -59.414873 -0.391241 46.659023 158.064142 -88.367096 -130.590553 0.000000 0.000000 0.000000 -1.677486 0.184674 0.880023 6.829609 0.760514 -5.230398 18.633031 -6.097140 -64.701446 -176.640945 54.565872 177.234024 0.000000 0.000000 0.000000 
-10.330100 80.678391 38.266911 179.976127 14.334264 179.877239 -4.746551 1.886288 9.824054 -7.713882 9.643560 -21.033935 7.157271 5.957545 29.336923 -2.045572 -11.226019 -13.193429 0.000000 0.000000 0.000000 -0.441797 0.313623 10.202018 -5.990436 -16.176571 -26.574258 -2.744035 2.693051 18.191295 11.818404 4.317652 11.045666 0.000000 0.000000 0.000000 1.991791 3.821769 -5.172447 -1.734180 0.387911 -1.702679 1.384622 -3.194683 4.133414 -0.034230 -0.088717 -0.030181 1.283169 -1.837187 5.669560 8.733220 -9.089880 3.426688 0.000000 0.000000 0.000000 2.659122 -1.575168 2.190747 -9.045855 -7.375132 0.014120 -59.185577 -0.189111 46.435570 156.347702 -88.450731 -128.842394 0.000000 0.000000 0.000000 -1.741761 0.197923 0.889629 7.157149 0.870543 -4.880236 18.982342 -6.384559 -65.367321 -176.772467 54.683553 177.236114 0.000000 0.000000 0.000000 
-10.626304 80.692329 39.005318 -179.961852 14.726455 179.853757 -4.654928 1.912995 9.694034 -8.013455 9.448278 -21.296456 7.219419 6.073289 28.878132 -1.915305 -10.763377 -12.949882 0.000000 0.000000 0.000000 -0.335210 0.598455 10.173359 -6.042900 -15.717667 -26.802400 -2.827145 2.864580 17.357126 11.705589 4.011987 11.973223 0.000000 0.000000 0.000000 2.022342 3.904481 -4.773352 -1.472541 0.317513 -1.390833 1.307158 -3.240625 4.109226 -0.010158 -0.150839 -0.041364 1.129535 -1.798058 5.645315 8.424414 -8.839086 3.073523 0.000000 0.000000 0.000000 2.486634 -1.425691 2.163128 -9.228077 -7.076940 0.127120 -58.930975 -0.069820 46.105744 148.620299 -88.440158 -121.106303 0.000000 0.000000 0.000000 -1.873280 0.311384 0.900590 7.491746 1.073468 -4.368135 19.340990 -6.591422 -65.516732 -176.731240 54.863997 177.496987 0.000000 0.000000 0.000000 
-10.850798 80.690758 39.693665 179.896896 15.093827 179.788802 -4.697544 1.923982 9.569854 -8.299254 9.123824 -21.519501 7.292852 6.190761 28.472779 -1.795210 -10.293093 -12.665940 0.000000 0.000000 0.000000 -0.360095 0.888059 10.070466 -6.016084 -15.327812 -27.110675 -2.980688 3.405810 17.000083 11.439726 3.757530 12.261176 0.000000 0.000000 0.000000 1.904489 4.078457 -4.432861 -1.277854 0.389060 -1.001074 1.173290 -3.193817 4.132772 -0.029457 -0.115984 -0.059004 1.080968 -1.859329 5.557381 8.173289 -8.807414 2.516663 0.000000 0.000000 0.000000 2.443617 -1.567031 2.183217 -9.372295 -7.012181 0.188811 -58.727742 -0.091301 45.684837 145.541673 -88.467745 -118.058235 0.000000 0.000000 0.000000 -1.943381 0.154062 0.833906 7.897066 1.122059 -3.530021 20.113504 -6.970918 -65.011421 -176.396793 55.149089 178.093003 0.000000 0.000000 0.000000 
